<svg xmlns="http://www.w3.org/2000/svg" fill="none" viewBox="0 0 160 46">
  <path fill="#F43326" stroke="#F43326" stroke-width=".324552" d="M159.315 18.944c.083.2496.256.4898.151.7617.104.2423.275.4751.189.7403.216.5979-.267 1.0675-.522 1.5841-.122.5657-.527 1.0478-.831 1.5616-.024.2594-.277.4031-.509.5599-.376 1.1483-1.37 2.0185-2.489 2.7581-1.034.6832-1.857 1.6135-3.318 1.8851-.007.0137-.019.0258-.034.0351-.015.0093-.033.0156-.053.0182-1.452.9093-3.052 1.6206-4.872 2.0333-.265.1971-.51.4186-.861.5287-1.702.5314-3.252 1.2891-5.041 1.7157-1.263.3028-2.478.7691-3.757 1.0847-.086.1733-.329.1529-.5.2321-.045.123-.199.1331-.323.1806-1.207.4633-2.527.6933-3.792 1.0327-.517.236-1.018.5347-1.629.5599-.564.0229-1.071.1792-1.544.3297-2.647.8366-5.412 1.376-8.18 1.9082-2.163.4154-4.361.7291-6.523 1.1509-1.261.2451-2.529.3225-3.815.3534-1.532.3674-3.138.4156-4.711.5886-1.666.1748-3.327.371-4.995.5309-1.594.1576-3.1868.2746-4.7965.3418-.6019.1791-1.2496.1458-1.872.2243-1.6639.2104-3.3539.2575-5.0267.3802-2.773.2047-5.5536.3214-8.3168.6471-.4646.0553-.9543.2446-1.4483.0521-2.4399.3044-4.8901.5529-7.3579.6866-.0918.0145-.1858.0197-.2795.0154-1.9752.1368-3.9219.4284-5.9033.5544-1.0115.0652-2.0427.1789-3.0614.3041-1.9169.2351-3.8629.3212-5.7754.6192-.8243.1281-1.7048.2617-2.5704.0686-.2283.0547-.442.189-.7023.0774l-.1549.0125c-.7227.061-1.4395.2833-2.1862.0987l-.3061.0442c-.3274.1346-.6699.118-1.0171.052-.1634.0593-.313-.0069-.4619-.0296-.2282.0547-.4384.1938-.7014.0829-.3335.0914-.6974.1-1.0379.0244-1.2144.0352-2.4236.1321-3.6444.0084-1.038-.1092-2.0998-.0881-3.1327-.259-.0285-.0003-.0568-.0045-.0832-.0126-1.3172.1137-2.6048-.0961-3.8995-.2065-2.3095-.1972-4.5658-.5889-6.8004-1.0632-.6325-.1345-1.2435-.3415-1.9114-.3554-.4491-.008-.8826-.1255-1.2346-.3347-.417-.0528-.8252-.1389-1.2178-.2568-.6942-.223-1.4045-.3995-2.1148-.5794-1.0054-.2505-2.016-.4639-3.0008-.7396-2.0194-.5629-3.9394-1.3001-5.8796-1.9897-1.0594-.3768-2.1518-.7187-3.0458-1.3045-.7443-.3614-1.4706-.7473-2.2384-1.0794-1.90283-.8266-3.51055-1.9091-4.95486-3.1385-.01358.0033-.0319-.0081-.05499-.0306-.32408-.2043-.61618-.4354-.8707-.6891-1.14998-1.0205-1.97135-2.1939-2.70572-3.3914-.40524-.6582-.822975-1.3526-.819625-2.1165-.214441-.7971-.47088-1.5907-.296517-2.4136-.061798-.3374-.035869-.6805.076355-1.0104.168295-.9775.449277-1.9224 1.338737-2.6979.35367-.6384.87528-1.2169 1.53372-1.701.70245-.8074 1.54903-1.5389 2.51616-2.1743.04735-.1943.2557-.3026.43819-.4014 1.06713-.5768 1.97593-1.2929 3.03426-1.8833 1.25859-.7035 2.49809-1.4204 3.84229-2.0288.0325-.0225.072-.0385.1148-.0466.1617-.1526.3745-.2702.6168-.3409.5597-.2464 1.0979-.5292 1.6788-.747 1.1627-.4336 2.3289-.8591 3.5146-1.2388 1.5575-.4979 3.0285-1.16705 4.7323-1.3892l.2665-.10541c.043-.0395.0765-.1014.1318-.11577 2.477-.64882 4.9717-1.24577 7.6104-1.40702-.0053.00941-.0097.01908-.0131.02896l.0108-.02728c.8465-.23773 1.806-.15463 2.6092-.42688.7262-.24592 1.4441-.23398 2.1809-.27257l-.009.02459c.0009-.009.001-.01803.0005-.02704.8389-.07993 1.6775-.16425 2.5177-.23774 1.9551-.17017 3.9089-.35015 5.8759-.42218 1.0868-.10577 2.1822-.15387 3.2781-.14395.0169-.00733.036-.01116.0555-.01111.0195.00006.0387.00401.0555.01144 2.2327-.27041 4.4898-.17855 6.7344-.20715 1.6158-.0242 3.232.03069 4.8383.16433 1.2086.1053 2.4385-.04813 3.626.21484.5134-.03555 1.0257-.05287 1.5323.08155 1.0365-.10145 2.0391.18452 3.0703.15503.9708.05344 1.9401.11398 2.8871.29431.0288.00177.0569.00717.0832.01597 1.568.08424 3.1204.26196 4.6691.45183l9.8219 1.22311c.6549-.02345 1.2981.00639 1.8958.23122.8496.04685 1.6927.14496 2.5213.29336.491.01359.9862.01607 1.4369.20879.4921.03016.9833.06168 1.4741.08879 2.274.12818 4.529.35188 6.7763.63118 1.7531.0018 3.4911.1731 5.2271.318.471-.0297.945.0091 1.397.1141 1.58-.088 3.159-.1727 4.737-.2659 1.248-.0748 2.483-.3158 3.749-.2008 1.977-.1102 3.946-.0963 5.907.1551.481-.0168.963.0049 1.438.0648.035-.0008.07.0034.103.0124 1.147.0913 2.278.2716 3.374.5378.611-.0229 1.173.1408 1.756.2526.394-.0069.756.0948 1.124.1792 1.224.1737 2.43.4095 3.611.7056.069-.0094.14-.0116.21-.0066 2.06.4129 4.181.562 6.273.8417 1.717.2302 3.452.3339 5.173.5419 1.025.0215 2.037.1852 3.074.0655.856-.1008 1.712-.1264 2.569-.1849.031.0115.065.015.099.01-.033-.0047-.066-.008-.099-.01.313-.1243.652-.1249.995-.1262.485-.1423.485-.1423.498.0914-.014.0706-.055.1366-.119.19-.063.0534-.146.0919-.237.111-.952.2587-1.961.3813-2.973.3614-1.054.154-2.117.1025-3.165.0013-.613-.0596-1.255.1505-1.836-.1211-1.58-.0093-3.126-.2235-4.667-.4522-1.795-.1309-3.59-.2696-5.345-.5928-1.482-.2731-2.954-.5836-4.43-.8783-1.659-.2061-3.334-.3623-4.971-.6422-.76-.131-1.547.0623-2.264-.2079-.363.0587-.741.0316-1.082-.0774-.955-.0391-1.912-.1252-2.864-.1068-1.748.0341-3.495.122-5.243.1896-.075.009-.151.0123-.228.0097-2.23.3104-4.477.3048-6.722.1684-3.997-.2415-7.9778-.5934-11.9553-.9933-.5292-.0539-1.0911-.0336-1.5718-.2652-.2796.0783-.5543.0207-.8321-.0126-1.3816-.1671-2.759-.34859-4.1466-.48392-.6003-.044-1.1943-.12688-1.7755-.2477-1.2621-.09576-2.508-.2866-3.719-.56962-.4206-.04507-.869.04111-1.2607-.14668-.307.0736-.6115.01979-.9072-.02042-1.1821-.15205-2.3741-.27816-3.5419-.47741-.7782-.13215-1.6002-.06526-2.3433-.33603-1.068.12922-2.0829-.0977-3.1082-.26489-1.1726.01401-2.3355-.12468-3.5009-.16063-3.1466-.09859-6.2784-.3522-9.4336-.3836-2.8888-.02796-5.7703-.05315-8.6518.07987-.595.03042-1.2072.12219-1.8117.01461-1.8469.2587-3.7296.27911-5.5833.45527-2.9013.27583-5.8256.46964-8.6807 1.01159-.6122.11646-1.2338.33729-1.9075.27099-.6366.14363-1.2622.33401-1.9167.42136-1.4172.18824-2.7524.5476-4.077.92461-1.7575.5067-3.4854 1.0791-5.196 1.671-1.0882.3731-2.1874.7276-3.2512 1.1543-.9739.3917-1.8347.9291-2.8801 1.2202-.167.1208-.3102.273-.5042.3588-1.6392.7206-2.9495 1.7732-4.54429 2.5382l-.09239.1344c-.12687.3132-.44177.4561-.84422.5166-.0289.0202-.06154.0371-.0969.0502-.02911.3212-.39672.4318-.66828.599-.03702.1974-.22337.2836-.45301.342-.33756.4495-.77211.8541-1.28603 1.1972-.12177.2482-.34556.461-.6391.6077l-1.88323 2.2538-.55785 1.9137c.13621.4664.18915.9443.15742 1.4212.08884.1655.16147.3356.2173.509.36609 1.5531 1.10391 3.0438 2.17785 4.4002.44491.5756 1.20741 1.0112 1.35839 1.7157.03563.014.066.0345.08835.0596.39339.248.89889.3973 1.1756.7473.45189.2206.82976.5164 1.10424.8643.22072.1535.45926.292.71278.4138.88161.3498 1.6254.8538 2.38777 1.2995 1.2266.716 2.5656 1.2602 3.9172 1.8093.9688.3962 1.9474.7766 2.9213 1.1638 1.0523.2269 1.9507.7107 2.9832.9929.966.2633 1.9835.4649 2.8948.8491l3.7357 1.0123c.7854-.002 1.3723.4712 2.1417.5055 1.1944.2546 2.3526.5998 3.6055.6967.4573.2013 1.0295.1034 1.4834.3178 1.5474-.0096 3.0053.4624 4.5482.4808 1.0384.0574 2.0713.1408 3.1163.1507.6554.0056 1.3585-.1012 1.9739.2001.346.0001.6854-.18 1.0379-.0243.138-.02.2781-.031.4187-.0331 1.103.0442 2.2022-.0016 3.306-.0294.8339-.0215 1.6631-.2191 2.5076-.0894l.6503.0394c.0172-.007.0368-.01.0563-.0086.0194.0013.0379.0068.0532.016.6337.0041 1.235-.1625 1.8886-.1363.6952.0286 1.4079-.0558 2.1017-.1425 1.5983-.2025 3.2111-.3815 4.8172-.4815 2.4411-.1576 4.8072-.6665 7.2658-.7094 1.0545-.0171 2.0745-.2729 3.1359-.2176 1.3729-.1305 2.7453-.2799 4.1233-.3847 1.6051-.1233 3.1853-.4034 4.8074-.4062.6945-.1663 1.4186-.2525 2.1477-.2556.9121.0048 1.8219-.0706 2.7106-.2245.8976-.1636 1.7868-.1467 2.6865-.102.2825-.0397.5573-.0977.8372-.1154 1.6144-.1054 3.2319-.1856 4.8447-.3086.8166-.0622 1.6175-.2452 2.4342-.2861 1.1029-.0546 2.2064-.0935 3.3046-.1941 1.1533-.1048 2.2953-.3618 3.4813-.307 1.439-.1654 2.871-.382 4.319-.4844 1.987-.1398 3.934-.4686 5.919-.6334 1.626-.1363 3.225-.5119 4.824-.7796.292-.07.577-.181.875-.2097 1.692-.1544 3.309-.5531 4.942-.8763 3.085-.6125 6.054-1.4996 9.059-2.2839 1.069-.3789 2.179-.6879 3.318-.9234 1.124-.6442 2.494-.8897 3.764-1.2983 1.407-.4497 2.808-.919 4.239-1.3217 1.032-.2912 1.854-.8317 2.819-1.1954 1.328-.6742 2.869-1.0536 4.217-1.6999.008-.1064.123-.125.226-.1531l2.095-1.0735c.002-.1125.133-.1238.229-.1669.473-.3672.92-.7583 1.528-1.0117.443-.4507 1.004-.8603 1.304-1.3596.747-1.2443 1.678-2.4315 2.204-3.7495.05-.3515.099-.7031.149-1.0546-.043-.1019-.072-.2072-.109-.3107-.389-1.2624-1.262-2.346-2.216-3.3965-1.036-.9478-2.166-1.8358-3.381-2.6563-.585-.1267-1.006-.4422-1.46-.7171-1.614-.9733-3.517-1.5721-5.33-2.2832-.884-.3492-1.871-.57954-2.771-.89568-1.562-.54797-3.18-.95921-4.804-1.35529-1.353-.33108-2.766-.51531-4.115-.86866-.186-.00222-.372-.01158-.557-.02805-1.821-.2302-3.629-.53296-5.489-.58065-1.141-.03065-2.288-.00491-3.419-.15346-.242.04006-.38-.03016-.412-.21333.089-.04375.191-.07057.297-.07815.106-.00758.213.00432.311.03466.763-.14747 1.556-.19189 2.34-.13117 1.97-.12542 3.866.19539 5.765.52569.16-.02411.323-.03037.485-.01858 1.7.12329 3.314.52638 4.953.84619 1.678.34181 3.366.66207 4.905 1.293.4.07561.79.17652 1.167.30166.554.20381 1.377.11867 1.628.71624.028.02615.05.05502.068.0858 1.788.27828 3.321.98718 4.872 1.65678.226.0974.545.151.636.3894.345.0727.638.2446.814.4783l-.033.0383.029-.0417c.928.2938 1.536.873 2.218 1.3872 1.24.7499 2.158 1.699 2.971 2.7107.592.7515 1.23 1.4996 1.308 2.4157ZM31.6404 8.58625c.0035.00661.0065.01343.0087.02037l.0353-.00847c-.0141-.00506-.0289-.00905-.044-.0119Zm55.7258.69912.0026.00611-.0026-.00611Zm23.6228 1.71913c-.012-.0056-.024-.0106-.037-.0149l.017.0174.02-.0025Zm10.965-.0284-.032.0075c.012.0086.026.0159.041.0216-.004-.0091-.006-.0186-.011-.0332l.002.0041Zm10.033 1.4194-.005-.0112-.016.0039.021.0073Zm-19.303-1.334-.032-.0101s.004.0101.006.0163l.026-.0062ZM33.8462 43.8778l.0068-.0016-.0068.0016Zm35.2229-.5883.0041-.001-.0041.001Zm79.3199-13.7188c.013-.0075.026-.0157.037-.0246l-.04.0097s.004.0034.005.0078l-.002.0071Zm9.23-12.5902-.017-.0073c-.018-.0091-.036-.0174-.055-.0248.035.0385.057.0435.073.025l-.001.0071ZM147.14 30.7973c-.024.0053-.046.0158-.062.03-.016.0142-.027.0317-.03.0503l.092-.0803ZM73.2251 43.164s.004.0092.0061.0143l.0272-.0066c-.0109-.003-.022-.0056-.0333-.0077ZM5.21257 33.8927l-.0026-.0061.00217.005.00043.0011Zm12.36493 5.5806.0189.0055-.0044-.0101-.0145.0046Zm33.6592 4.8591.0145-.0326-.0145.0326ZM126.295 6.43949l-.009.00871.021-.00488-.012-.00383Z"/>
</svg>
